<svg id="mermaid-1666080700720" width="100%" xmlns="http://www.w3.org/2000/svg" height="450" style="max-width: 784px;" viewBox="0 0 784 450"><style>#mermaid-1666080700720{font-family:"trebuchet ms",verdana,arial,sans-serif;font-size:16px;fill:#333;}#mermaid-1666080700720 .error-icon{fill:#552222;}#mermaid-1666080700720 .error-text{fill:#552222;stroke:#552222;}#mermaid-1666080700720 .edge-thickness-normal{stroke-width:2px;}#mermaid-1666080700720 .edge-thickness-thick{stroke-width:3.5px;}#mermaid-1666080700720 .edge-pattern-solid{stroke-dasharray:0;}#mermaid-1666080700720 .edge-pattern-dashed{stroke-dasharray:3;}#mermaid-1666080700720 .edge-pattern-dotted{stroke-dasharray:2;}#mermaid-1666080700720 .marker{fill:#333333;stroke:#333333;}#mermaid-1666080700720 .marker.cross{stroke:#333333;}#mermaid-1666080700720 svg{font-family:"trebuchet ms",verdana,arial,sans-serif;font-size:16px;}#mermaid-1666080700720 .pieTitleText{text-anchor:middle;font-size:25px;fill:black;font-family:"trebuchet ms",verdana,arial,sans-serif;}#mermaid-1666080700720 .slice{font-family:"trebuchet ms",verdana,arial,sans-serif;fill:#333;}#mermaid-1666080700720 .legend text{fill:black;font-family:"trebuchet ms",verdana,arial,sans-serif;font-size:17px;}#mermaid-1666080700720:root{--mermaid-font-family:"trebuchet ms",verdana,arial,sans-serif;}#mermaid-1666080700720 pie{fill:apa;}</style><g></g><g transform="translate(392,225)"><path d="M102.01414116667345,154.33118609673815A185,185,0,0,1,-173.33780971458958,64.64521423391479L0,0Z" fill="#66c2a5" stroke="black" style="stroke-width: 2px; opacity: 0.7;"></path><path d="M-173.33780971458958,64.64521423391479A185,185,0,0,1,-98.8450761662338,-156.37982899879205L0,0Z" fill="#fc8d62" stroke="black" style="stroke-width: 2px; opacity: 0.7;"></path><path d="M-98.8450761662338,-156.37982899879205A185,185,0,0,1,-13.276064611804763,-184.5230232475698L0,0Z" fill="#8da0cb" stroke="black" style="stroke-width: 2px; opacity: 0.7;"></path><path d="M-13.276064611804763,-184.5230232475698A185,185,0,0,1,-3.398394867633905e-14,-185L0,0Z" fill="#e78ac3" stroke="black" style="stroke-width: 2px; opacity: 0.7;"></path><path d="M1.1327982892113017e-14,-185A185,185,0,0,1,102.01414116667345,154.33118609673815L0,0Z" fill="#a6d854" stroke="black" style="stroke-width: 2px; opacity: 0.7;"></path><text transform="translate(-28.64725035246854,87.952174772674)" class="slice" style="text-anchor: middle; font-size: 17px;">29%</text><text transform="translate(-87.65543091504415,-29.54277290807217)" class="slice" style="text-anchor: middle; font-size: 17px;">22%</text><text transform="translate(-28.899815734591215,-87.8695092196757)" class="slice" style="text-anchor: middle; font-size: 17px;">8%</text><text transform="translate(-3.3211575391643806,-92.44035867844765)" class="slice" style="text-anchor: middle; font-size: 17px;">1%</text><text transform="translate(88.58348423090543,-26.631115664067295)" class="slice" style="text-anchor: middle; font-size: 17px;">41%</text><text x="0" y="-200" class="pieTitleText">Formal languages used in GiellaLT</text><g class="legend" transform="translate(216,-55)"><rect width="18" height="18" style="fill: rgb(102, 194, 165); stroke: rgb(102, 194, 165);"></rect><text x="22" y="14">LexC</text></g><g class="legend" transform="translate(216,-33)"><rect width="18" height="18" style="fill: rgb(252, 141, 98); stroke: rgb(252, 141, 98);"></rect><text x="22" y="14">Xfst regex</text></g><g class="legend" transform="translate(216,-11)"><rect width="18" height="18" style="fill: rgb(141, 160, 203); stroke: rgb(141, 160, 203);"></rect><text x="22" y="14">Xfst script</text></g><g class="legend" transform="translate(216,11)"><rect width="18" height="18" style="fill: rgb(231, 138, 195); stroke: rgb(231, 138, 195);"></rect><text x="22" y="14">TwolC</text></g><g class="legend" transform="translate(216,33)"><rect width="18" height="18" style="fill: rgb(166, 216, 84); stroke: rgb(166, 216, 84);"></rect><text x="22" y="14">YAML</text></g></g></svg>