<svg aria-labelledby="chart-title-my-svg" aria-roledescription="pie" role="graphics-document document" viewBox="0 0 784 450" style="max-width: 784px; background-color: white;" xmlns:xlink="http://www.w3.org/1999/xlink" xmlns="http://www.w3.org/2000/svg" width="100%" id="my-svg"><title id="chart-title-my-svg">Formal languages used in GiellaLT</title><style>#my-svg{font-family:"trebuchet ms",verdana,arial,sans-serif;font-size:16px;fill:#333;}#my-svg .error-icon{fill:#552222;}#my-svg .error-text{fill:#552222;stroke:#552222;}#my-svg .edge-thickness-normal{stroke-width:2px;}#my-svg .edge-thickness-thick{stroke-width:3.5px;}#my-svg .edge-pattern-solid{stroke-dasharray:0;}#my-svg .edge-pattern-dashed{stroke-dasharray:3;}#my-svg .edge-pattern-dotted{stroke-dasharray:2;}#my-svg .marker{fill:#333333;stroke:#333333;}#my-svg .marker.cross{stroke:#333333;}#my-svg svg{font-family:"trebuchet ms",verdana,arial,sans-serif;font-size:16px;}#my-svg .pieCircle{stroke:black;stroke-width:2px;opacity:0.7;}#my-svg .pieOuterCircle{stroke:black;stroke-width:2px;fill:none;}#my-svg .pieTitleText{text-anchor:middle;font-size:25px;fill:black;font-family:"trebuchet ms",verdana,arial,sans-serif;}#my-svg .slice{font-family:"trebuchet ms",verdana,arial,sans-serif;fill:#333;font-size:17px;}#my-svg .legend text{fill:black;font-family:"trebuchet ms",verdana,arial,sans-serif;font-size:17px;}#my-svg :root{--mermaid-font-family:"trebuchet ms",verdana,arial,sans-serif;}</style><g/><g transform="translate(392,225)"><circle class="pieOuterCircle" r="186" cy="0" cx="0"/><path class="pieCircle" fill="#ECECFF" d="M1.1327982892113017e-14,-185A185,185,0,0,1,180.24949069876612,41.65478487323419L0,0Z"/><path class="pieCircle" fill="#ffffde" d="M180.24949069876612,41.65478487323419A185,185,0,0,1,-3.773384359706727,184.96151375481853L0,0Z"/><path class="pieCircle" fill="hsl(80, 100%, 56.2745098039%)" d="M-3.773384359706727,184.96151375481853A185,185,0,0,1,-90.67592942617402,161.25407226702683L0,0Z"/><path class="pieCircle" fill="hsl(240, 100%, 86.2745098039%)" d="M-90.67592942617402,161.25407226702683A185,185,0,0,1,-102.01414116667343,154.33118609673815L0,0Z"/><path class="pieCircle" fill="hsl(60, 100%, 63.5294117647%)" d="M-102.01414116667343,154.33118609673815A185,185,0,0,1,-3.398394867633905e-14,-185L0,0Z"/><text style="text-anchor: middle;" class="slice" transform="translate(108.59618674445004,-86.36220657535641)">29%</text><text style="text-anchor: middle;" class="slice" transform="translate(85.25015687870595,109.4713352990454)">22%</text><text style="text-anchor: middle;" class="slice" transform="translate(-36.51721360123527,133.85834158094804)">8%</text><text style="text-anchor: middle;" class="slice" transform="translate(-72.30539689854912,118.42082620613354)">1%</text><text style="text-anchor: middle;" class="slice" transform="translate(-132.87522634635812,-39.946673496100985)">41%</text><text class="pieTitleText" y="-200" x="0">Formal languages used in GiellaLT</text><g transform="translate(216,-55)" class="legend"><rect style="fill: rgb(236, 236, 255); stroke: rgb(236, 236, 255);" height="18" width="18"/><text y="14" x="22">LexC</text></g><g transform="translate(216,-33)" class="legend"><rect style="fill: rgb(255, 255, 222); stroke: rgb(255, 255, 222);" height="18" width="18"/><text y="14" x="22">Xfst regex</text></g><g transform="translate(216,-11)" class="legend"><rect style="fill: rgb(181, 255, 32); stroke: rgb(181, 255, 32);" height="18" width="18"/><text y="14" x="22">Xfst script</text></g><g transform="translate(216,11)" class="legend"><rect style="fill: rgb(185, 185, 255); stroke: rgb(185, 185, 255);" height="18" width="18"/><text y="14" x="22">TwolC</text></g><g transform="translate(216,33)" class="legend"><rect style="fill: rgb(255, 255, 69); stroke: rgb(255, 255, 69);" height="18" width="18"/><text y="14" x="22">YAML</text></g></g></svg>