<svg aria-roledescription="pie" role="graphics-document document" style="max-width: 784px; background-color: white;" viewBox="0 0 784 450" xmlns:xlink="http://www.w3.org/1999/xlink" xmlns="http://www.w3.org/2000/svg" width="100%" id="my-svg"><style>#my-svg{font-family:"trebuchet ms",verdana,arial,sans-serif;font-size:16px;fill:#000000;}#my-svg .error-icon{fill:#552222;}#my-svg .error-text{fill:#552222;stroke:#552222;}#my-svg .edge-thickness-normal{stroke-width:2px;}#my-svg .edge-thickness-thick{stroke-width:3.5px;}#my-svg .edge-pattern-solid{stroke-dasharray:0;}#my-svg .edge-pattern-dashed{stroke-dasharray:3;}#my-svg .edge-pattern-dotted{stroke-dasharray:2;}#my-svg .marker{fill:#000000;stroke:#000000;}#my-svg .marker.cross{stroke:#000000;}#my-svg svg{font-family:"trebuchet ms",verdana,arial,sans-serif;font-size:16px;}#my-svg .pieCircle{stroke:black;stroke-width:2px;opacity:0.7;}#my-svg .pieOuterCircle{stroke:black;stroke-width:5px;fill:none;}#my-svg .pieTitleText{text-anchor:middle;font-size:25px;fill:black;font-family:"trebuchet ms",verdana,arial,sans-serif;}#my-svg .slice{font-family:"trebuchet ms",verdana,arial,sans-serif;fill:#000000;font-size:17px;}#my-svg .legend text{fill:black;font-family:"trebuchet ms",verdana,arial,sans-serif;font-size:17px;}#my-svg :root{--mermaid-font-family:"trebuchet ms",verdana,arial,sans-serif;}</style><g/><g transform="translate(392,225)"><circle class="pieOuterCircle" r="187.5" cy="0" cx="0"/><path class="pieCircle" fill="#cde498" d="M1.1327982892113017e-14,-185A185,185,0,0,1,42.237228123611345,180.11389885412513L0,0Z"/><path class="pieCircle" fill="#cdffb2" d="M42.237228123611345,180.11389885412513A185,185,0,0,1,-141.76816525308922,-118.85616231720081L0,0Z"/><path class="pieCircle" fill="hsl(78.1578947368, 58.4615384615%, 84.5098039216%)" d="M-141.76816525308922,-118.85616231720081A185,185,0,0,1,-53.0490527880011,-177.23091716259856L0,0Z"/><path class="pieCircle" fill="hsl(78.1578947368, 58.4615384615%, 44.5098039216%)" d="M-53.0490527880011,-177.23091716259856A185,185,0,0,1,1.303290589681841e-13,-185L0,0Z"/><text style="text-anchor: middle;" class="slice" transform="translate(91.88720754817638,-10.629726666210965)">46%</text><text style="text-anchor: middle;" class="slice" transform="translate(-78.77559303277985,48.48356363071764)">40%</text><text style="text-anchor: middle;" class="slice" transform="translate(-50.843731452688694,-77.27331345274948)">9%</text><text style="text-anchor: middle;" class="slice" transform="translate(-13.40373233897587,-91.52371255245873)">5%</text><text class="pieTitleText" y="-200" x="0">Key elements in Product X</text><g transform="translate(216,-44)" class="legend"><rect style="fill: rgb(205, 228, 152); stroke: rgb(205, 228, 152);" height="18" width="18"/><text y="14" x="22">Potassium [50.05]</text></g><g transform="translate(216,-22)" class="legend"><rect style="fill: rgb(205, 255, 178); stroke: rgb(205, 255, 178);" height="18" width="18"/><text y="14" x="22">Calcium [42.96]</text></g><g transform="translate(216,0)" class="legend"><rect style="fill: rgb(225, 239, 192); stroke: rgb(225, 239, 192);" height="18" width="18"/><text y="14" x="22">Magnesium [10.01]</text></g><g transform="translate(216,22)" class="legend"><rect style="fill: rgb(140, 180, 47); stroke: rgb(140, 180, 47);" height="18" width="18"/><text y="14" x="22">Iron [5]</text></g></g></svg>