<?xml version="1.0" encoding="UTF-8"?>
<svg id="Lager_1" data-name="Lager 1" xmlns="http://www.w3.org/2000/svg" viewBox="0 0 293.57 201.85">
  <defs>
    <style>
      .cls-1 {
        fill: #004955;
      }

      .cls-2 {
        fill: #181716;
      }
    </style>
  </defs>
  <path class="cls-1" d="m59.17,159.3c0-7.36,5.89-13.33,13.16-13.33s13.16,5.97,13.16,13.33-5.89,13.33-13.16,13.33-13.16-5.97-13.16-13.33"/>
  <path class="cls-1" d="m42.6,60.36h12v79.7h-23.99v-67.56s0-12.09,12-12.14"/>
  <path class="cls-1" d="m55.54,41.43c0,7.36-5.89,13.33-13.16,13.33s-13.16-5.97-13.16-13.33,5.89-13.33,13.16-13.33,13.16,5.97,13.16,13.33"/>
  <path class="cls-1" d="m72.34,140.12h-12V60.42h23.99v67.56s0,12.09-12,12.14"/>
  <path class="cls-2" d="m233.8,139.7h2.89v-7.16c0-.76.06-1.45.24-2.05.63-2.2,2.48-3.74,4.77-3.74,2.42,0,2.86,1.69,2.86,3.83v9.12h2.89v-9.78c0-3.89-1.64-5.85-5.19-5.85-3.28,0-5.07,2.17-5.67,3.5h-.06s.06-.51.06-1.12v-2.02h-2.8v15.27Zm-14.23-9.42c.42-2.51,2.21-3.9,4.41-3.9,1.94,0,3.55,1.27,3.64,3.9h-8.05Zm-3.07,1.78c0,4.53,3.25,8,7.99,8,3.61,0,5.84-2.17,5.84-2.17l-1.19-2.14s-1.88,1.78-4.47,1.78-5.04-1.69-5.19-5.05h11s.09-.87.09-1.27c0-3.96-2.26-7.15-6.53-7.15s-7.54,3.14-7.54,8m-16.64,7.64h2.89v-7.16c0-.76.06-1.45.24-2.05.63-2.2,2.48-3.74,4.77-3.74,2.42,0,2.86,1.69,2.86,3.83v9.12h2.89v-9.78c0-3.89-1.64-5.85-5.19-5.85-3.28,0-5.07,2.17-5.67,3.5h-.06s.06-.51.06-1.12v-2.02h-2.8v15.27Zm-17.68,0h2.89v-7.16c0-.76.06-1.45.24-2.05.63-2.2,2.48-3.74,4.77-3.74,2.42,0,2.86,1.69,2.86,3.83v9.12h2.89v-9.78c0-3.89-1.64-5.85-5.19-5.85-3.28,0-5.07,2.17-5.67,3.5h-.06s.06-.51.06-1.12v-2.02h-2.8v15.27Zm-7.13,0h2.89v-15.27h-2.89v15.27Zm-.03-18.33h2.92v-2.99h-2.92v2.99Zm-26.92,18.33h2.89v-6.97c0-.69.03-1.39.18-1.99.57-2.17,2.12-4.02,4.33-4.02,2.33,0,2.63,1.84,2.63,3.83v9.15h2.89v-6.97c0-.79.06-1.48.21-2.11.54-2.08,2.12-3.9,4.24-3.9,2.27,0,2.68,1.69,2.68,3.83v9.15h2.89v-9.78c0-3.89-1.58-5.85-4.98-5.85-2.45,0-4.53,1.63-5.37,3.47h-.06c-.51-2.29-2-3.47-4.53-3.47-2.36,0-4.47,1.72-5.19,3.5h-.06s.06-.51.06-1.12v-2.02h-2.8v15.27Zm-15.38,0h2.89v-7.19h2.18l4.53,7.19h3.37l-5.58-8.48v-.06l5.01-6.73h-3.28l-4.11,5.62h-2.12v-11.65h-2.89v21.31Zm-7.78-4.16c0,3.83,2.41,4.28,4.05,4.28.51,0,.95-.06.95-.06v-2.59s-.24.03-.51.03c-.89,0-1.61-.33-1.61-2.17v-16.64h-2.89v17.15Zm-16.28-3.5c0-3.17,2.36-5.44,5.19-5.44s5.19,2.27,5.19,5.44-2.33,5.5-5.19,5.5-5.19-2.3-5.19-5.5m-2.95,0c0,4.65,3.63,8.03,8.14,8.03s8.14-3.38,8.14-8.03-3.63-7.97-8.14-7.97-8.14,3.35-8.14,7.97m-7.81,7.67h2.86v-12.71h3.58v-2.35h-3.58v-.66c0-2.84,2.06-3.2,3.16-3.2.45,0,.75.06.75.06v-2.5s-.45-.09-1.1-.09c-1.91,0-5.66.63-5.66,5.68v.73h-1.88v2.35h1.88v12.71Z"/>
  <path class="cls-2" d="m211.14,110.76h2.89v-7.16c0-.72.06-1.42.24-2.02.63-2.2,2.51-3.77,4.77-3.77,2.42,0,2.86,1.69,2.86,3.83v9.12h2.89v-9.78c0-3.89-1.64-5.85-5.19-5.85-3.01,0-4.92,1.93-5.58,3.41h-.06s.06-.54.06-1.27v-7.82h-2.89v21.31Zm-17.08-7.64c0,4.59,3.34,8,8.08,8,3.94,0,6.02-2.44,6.02-2.44l-1.16-2.14s-1.85,2.05-4.65,2.05c-3.13,0-5.34-2.39-5.34-5.5s2.21-5.44,5.25-5.44c2.56,0,4.17,1.75,4.17,1.75l1.37-2.05s-1.88-2.23-5.66-2.23c-4.74,0-8.08,3.47-8.08,8m-15.39-.03c0-3.17,2.36-5.44,5.19-5.44s5.19,2.27,5.19,5.44-2.33,5.5-5.19,5.5-5.19-2.3-5.19-5.5m-2.95,0c0,4.65,3.63,8.03,8.14,8.03s8.14-3.38,8.14-8.03-3.63-7.97-8.14-7.97-8.14,3.35-8.14,7.97m-21.64,7.67h2.89v-7.19h2.18l4.53,7.19h3.37l-5.58-8.48v-.06l5.01-6.73h-3.28l-4.11,5.62h-2.12v-11.66h-2.89v21.31Zm-9.9-18.35c-.6,0-.99-.42-.99-1,0-.64.39-1.06.99-1.06s.99.42.99,1.06c0,.57-.42,1-.99,1m0,1.23c1.31,0,2.53-.84,2.53-2.23s-1.22-2.26-2.53-2.26-2.53.84-2.53,2.26,1.19,2.23,2.53,2.23m-3.85,12.68c0-2.75,3.94-2.9,6.11-2.9h.75v.48c0,2.27-1.58,4.86-4.03,4.86-1.88,0-2.83-1.21-2.83-2.45m-2.92.15c0,3.05,2.53,4.65,5.13,4.65,3.61,0,4.83-3.02,4.83-3.02h.06s-.06.51-.06,1.2v1.45h2.68v-9.66c0-3.87-2.14-5.98-5.96-5.98-3.46,0-5.63,1.81-5.63,1.81l1.19,2.14s1.88-1.48,4.2-1.48c1.91,0,3.31.85,3.31,3.36v.27h-.66c-2.54,0-9.09.21-9.09,5.25m-9.66,4.29h2.89v-6.25c0-.94.09-1.87.36-2.75.69-2.26,2.39-3.59,4.23-3.59.45,0,.83.09.83.09v-2.9s-.36-.06-.75-.06c-2.33,0-4.08,1.75-4.77,3.98h-.06s.06-.51.06-1.14v-2.66h-2.8v15.27Zm-14.79-7.58c0-3.9,2.09-5.5,4.35-5.5,2.51,0,4.27,2.14,4.27,5.47s-1.97,5.47-4.36,5.47c-2.77,0-4.27-2.72-4.27-5.44m-2.8,13.62h2.89v-6.85c0-.78-.06-1.33-.06-1.33h.06s1.31,2.5,4.62,2.5c3.94,0,6.83-3.14,6.83-8s-2.56-8-6.62-8c-3.79,0-5.07,2.77-5.07,2.77h-.06s.06-.51.06-1.12v-1.3h-2.65v21.31Zm-14.28-7.91s2.03,2.23,5.72,2.23c3.31,0,5.45-1.9,5.45-4.44,0-5.01-7.75-4.41-7.75-7.16,0-1.33,1.22-1.87,2.48-1.87,2.39,0,3.73,1.36,3.73,1.36l1.16-2.2s-1.55-1.69-4.86-1.69c-3.01,0-5.45,1.57-5.45,4.35,0,4.98,7.75,4.41,7.75,7.22,0,1.24-1.25,1.9-2.51,1.9-2.63,0-4.32-1.78-4.32-1.78l-1.4,2.08Z"/>
  <path class="cls-2" d="m254.02,81.83h2.89v-6.25c0-.94.09-1.87.36-2.75.69-2.26,2.39-3.59,4.23-3.59.45,0,.83.09.83.09v-2.89s-.36-.06-.75-.06c-2.33,0-4.08,1.75-4.77,3.98h-.06s.06-.51.06-1.14v-2.66h-2.8v15.27Zm-14.94-18.27h2.38v-3.05h-2.38v3.05Zm4.98,0h2.38v-3.05h-2.38v3.05Zm-6.5,10.6c0-3.17,2.36-5.44,5.19-5.44s5.19,2.27,5.19,5.44-2.33,5.5-5.19,5.5-5.19-2.3-5.19-5.5m-2.95,0c0,4.65,3.64,8.03,8.14,8.03s8.14-3.38,8.14-8.03-3.64-7.97-8.14-7.97-8.14,3.35-8.14,7.97m-7.81,7.67h2.86v-12.71h3.58v-2.35h-3.58v-.66c0-2.84,2.06-3.2,3.16-3.2.45,0,.75.06.75.06v-2.5s-.45-.09-1.1-.09c-1.91,0-5.66.63-5.66,5.68v.73h-1.88v2.35h1.88v12.71Zm-17.92-5.58c0,5.1,3.84,5.7,5.78,5.7.6,0,1.01-.06,1.01-.06v-2.59s-.27.06-.69.06c-1.1,0-3.22-.39-3.22-3.44v-6.8h3.64v-2.35h-3.64v-4.41h-2.8v4.41h-2.06v2.35h1.97v7.13Zm-14.85-3.83c.42-2.51,2.21-3.9,4.41-3.9,1.94,0,3.55,1.27,3.64,3.9h-8.05Zm-3.07,1.78c0,4.53,3.25,8,7.99,8,3.61,0,5.84-2.17,5.84-2.17l-1.19-2.14s-1.88,1.78-4.47,1.78-5.04-1.69-5.19-5.05h11s.09-.87.09-1.27c0-3.96-2.26-7.15-6.53-7.15s-7.54,3.14-7.54,8m-8.71,2.06c0,5.1,3.84,5.7,5.78,5.7.6,0,1.01-.06,1.01-.06v-2.59s-.27.06-.69.06c-1.1,0-3.22-.39-3.22-3.44v-6.8h3.64v-2.35h-3.64v-4.41h-2.8v4.41h-2.06v2.35h1.97v7.13Zm-18.37.09c0,4.04,1.76,5.85,5.16,5.85,2.95,0,4.92-1.99,5.55-3.5h.06s-.06.48-.06,1.11v2.02h2.8v-15.27h-2.89v7.15c0,3.02-1.82,5.77-4.89,5.77-2.42,0-2.83-1.69-2.83-3.8v-9.12h-2.89v9.78Zm-9.54-.09c0,5.1,3.84,5.7,5.78,5.7.6,0,1.01-.06,1.01-.06v-2.59s-.27.06-.69.06c-1.1,0-3.22-.39-3.22-3.44v-6.8h3.64v-2.35h-3.64v-4.41h-2.8v4.41h-2.06v2.35h1.97v7.13Zm-7.75,5.58h2.89v-15.27h-2.89v15.27Zm-.03-18.33h2.92v-2.99h-2.92v2.99Zm-9.72,12.74c0,5.1,3.84,5.7,5.78,5.7.6,0,1.01-.06,1.01-.06v-2.59s-.27.06-.69.06c-1.1,0-3.22-.39-3.22-3.44v-6.8h3.64v-2.35h-3.64v-4.41h-2.8v4.41h-2.06v2.35h1.97v7.13Zm-14.91,3.71s2.03,2.23,5.72,2.23c3.31,0,5.45-1.9,5.45-4.44,0-5.01-7.75-4.41-7.75-7.16,0-1.33,1.22-1.87,2.48-1.87,2.39,0,3.73,1.36,3.73,1.36l1.16-2.2s-1.55-1.69-4.86-1.69c-3.01,0-5.45,1.57-5.45,4.35,0,4.98,7.75,4.41,7.75,7.22,0,1.24-1.25,1.9-2.51,1.9-2.63,0-4.32-1.78-4.32-1.78l-1.4,2.08Zm-16.46,1.87h2.89v-7.16c0-.75.06-1.45.24-2.05.63-2.2,2.48-3.74,4.77-3.74,2.42,0,2.86,1.69,2.86,3.83v9.12h2.89v-9.78c0-3.89-1.64-5.85-5.19-5.85-3.28,0-5.07,2.17-5.67,3.5h-.06s.06-.51.06-1.12v-2.02h-2.8v15.27Zm-7.78,0h2.95v-21.31h-2.95v21.31Z"/>
</svg>